<?xml version="1.0" standalone="no"?>
<!DOCTYPE svg PUBLIC "-//W3C//DTD SVG 20010904//EN"
 "http://www.w3.org/TR/2001/REC-SVG-20010904/DTD/svg10.dtd">
<svg version="1.0" xmlns="http://www.w3.org/2000/svg"
 width="300.000000pt" height="300.000000pt" viewBox="0 0 300.000000 300.000000"
 preserveAspectRatio="xMidYMid meet">
<metadata>
Created by potrace 1.10, written by Peter Selinger 2001-2011
</metadata>
<g transform="translate(0.000000,300.000000) scale(0.100000,-0.100000)"
fill="#000000" stroke="none">
<path d="M1315 2882 c-187 -35 -313 -72 -400 -119 -16 -8 -61 -32 -100 -51
-38 -20 -73 -41 -77 -46 -5 -7 -8 -7 -8 -1 0 6 -3 6 -8 0 -4 -6 -29 -29 -57
-50 -27 -22 -52 -43 -55 -46 -3 -3 -13 -8 -23 -12 -10 -4 -15 -11 -12 -17 3
-5 1 -10 -4 -10 -6 0 -28 -16 -48 -35 -20 -19 -41 -35 -45 -35 -4 0 -8 -7 -8
-15 0 -9 -7 -18 -16 -22 -8 -3 -13 -12 -10 -19 3 -8 2 -13 -3 -11 -4 1 -28
-23 -51 -53 -24 -30 -47 -56 -52 -58 -4 -2 -8 -10 -8 -17 0 -8 -6 -20 -13 -27
-6 -7 -25 -41 -42 -75 -16 -35 -33 -63 -37 -63 -5 0 -8 -8 -8 -17 0 -17 -40
-123 -50 -133 -3 -3 -13 -36 -22 -75 -15 -61 -22 -98 -44 -235 -8 -54 -5 -220
6 -300 13 -97 46 -241 65 -285 8 -16 11 -33 9 -37 -3 -4 0 -8 5 -8 6 0 11 -11
11 -24 0 -13 7 -29 15 -36 8 -7 15 -21 15 -31 0 -9 6 -24 13 -31 6 -7 23 -36
37 -63 14 -27 33 -58 42 -69 10 -11 18 -26 18 -33 0 -7 4 -13 10 -13 5 0 21
-20 35 -45 15 -24 40 -56 57 -70 16 -14 26 -25 23 -25 -4 0 -2 -7 5 -15 7 -8
16 -13 20 -10 4 2 13 -6 19 -19 7 -12 26 -30 42 -40 16 -9 29 -24 29 -32 0 -8
4 -13 8 -10 5 3 26 -11 48 -31 49 -45 151 -112 181 -119 13 -4 20 -10 17 -15
-3 -5 0 -9 6 -9 7 0 41 -13 77 -30 35 -16 75 -33 89 -36 13 -3 24 -10 24 -14
0 -5 8 -7 18 -5 9 1 31 -3 48 -10 17 -7 55 -16 85 -20 30 -4 60 -12 67 -18 8
-6 68 -12 143 -13 106 -2 129 0 129 12 0 8 7 14 15 14 8 0 23 9 32 19 9 11 23
17 32 14 9 -4 13 -3 10 1 -4 4 16 30 43 59 36 38 51 48 57 38 40 -64 145 -20
136 58 -3 19 -11 41 -19 50 -8 9 -18 28 -21 43 -4 16 -11 26 -15 23 -4 -3 -11
2 -14 11 -4 10 -2 13 7 8 6 -4 4 2 -6 13 -14 16 -16 33 -13 84 4 63 26 135 38
123 3 -3 0 -17 -8 -32 -17 -33 -20 -66 -3 -42 11 15 9 6 -7 -51 -4 -15 3 -28
27 -50 18 -16 40 -29 49 -29 29 0 70 39 70 67 0 21 2 23 15 13 8 -7 25 -33 37
-59 13 -25 26 -48 31 -49 15 -7 6 -32 -24 -67 -17 -19 -27 -35 -23 -35 5 0 4
-4 -1 -8 -21 -14 -54 -123 -45 -146 14 -37 54 -58 86 -45 42 15 58 45 55 102
-2 46 -1 48 21 45 16 -2 24 -11 26 -28 2 -14 7 -29 12 -35 4 -5 11 -29 15 -51
6 -37 3 -44 -17 -58 -12 -9 -30 -16 -40 -16 -10 0 -18 -4 -18 -10 0 -5 -7 -10
-15 -10 -8 0 -15 -4 -15 -10 0 -5 -7 -10 -15 -10 -7 0 -18 -7 -23 -16 -5 -8
-21 -23 -36 -33 -25 -16 -25 -19 -8 -23 11 -3 35 6 58 23 21 16 72 44 112 64
l73 34 -7 38 c-4 21 -16 61 -26 88 -11 28 -27 72 -35 98 -11 36 -18 47 -29 43
-9 -3 -18 -6 -20 -6 -2 0 -4 -6 -4 -14 0 -8 -4 -16 -8 -18 -4 -1 -21 -20 -36
-41 l-29 -38 22 -23 c20 -21 21 -27 9 -45 -17 -28 -32 -32 -57 -15 -21 15 -28
48 -12 58 5 3 12 21 15 39 3 19 28 58 55 91 l49 58 -56 87 -57 86 0 105 c1 88
4 112 23 147 26 50 16 61 -31 33 -32 -19 -34 -23 -30 -63 4 -33 -2 -57 -25
-107 -45 -94 -48 -116 -23 -132 29 -18 27 -52 -4 -68 -22 -12 -28 -12 -41 2
-14 13 -14 26 -6 82 6 37 22 90 35 119 31 65 39 98 27 117 -7 12 -20 3 -65
-44 -30 -33 -55 -64 -55 -70 0 -6 -9 -22 -20 -36 -11 -15 -20 -42 -20 -65 -1
-22 -5 -58 -9 -80 -7 -38 12 -105 29 -105 4 0 15 -19 26 -42 10 -24 24 -47 31
-51 19 -12 16 -41 -5 -60 -47 -43 -97 9 -55 55 16 18 16 21 1 46 -19 31 -38
40 -38 17 0 -50 -113 -195 -175 -223 -41 -20 -69 -30 -91 -35 -35 -7 -272 32
-369 62 -117 36 -322 142 -377 193 -7 7 -31 26 -53 43 -22 16 -52 42 -67 57
-15 16 -32 28 -38 28 -5 0 -10 3 -10 8 0 4 -20 27 -44 52 -50 52 -173 233
-207 305 -13 28 -27 52 -30 55 -3 3 -11 28 -19 55 -7 28 -16 55 -20 60 -14 19
-47 147 -56 215 -19 144 -25 266 -15 330 32 212 54 294 118 440 43 98 130 238
168 270 8 7 15 17 15 24 0 15 226 233 250 241 11 4 20 11 20 16 0 5 6 9 14 9
8 0 16 3 18 8 4 9 63 43 138 80 30 15 57 30 58 35 2 4 12 7 22 7 10 0 21 4 25
9 3 5 20 13 37 17 18 3 39 10 48 14 8 5 42 14 75 20 33 7 83 19 112 27 81 22
396 22 445 0 21 -9 54 -17 74 -17 37 0 197 -50 244 -76 14 -8 47 -23 74 -34
59 -25 196 -114 251 -164 75 -68 165 -160 165 -168 0 -4 7 -8 15 -8 8 0 15 -6
15 -12 0 -7 14 -29 30 -48 16 -19 30 -38 30 -42 0 -4 6 -13 13 -20 16 -18 32
-47 74 -132 18 -39 38 -79 44 -89 73 -132 120 -447 99 -657 -12 -119 -73 -348
-110 -415 -9 -16 -34 -64 -55 -105 -22 -41 -42 -77 -45 -80 -3 -3 -14 -18 -23
-33 -27 -43 -45 -63 -130 -153 -62 -64 -94 -90 -152 -117 -84 -41 -115 -64
-115 -88 0 -9 10 -54 22 -100 14 -56 22 -116 22 -182 1 -77 4 -96 14 -92 8 3
21 5 30 6 9 0 12 3 6 5 -7 3 -10 23 -7 52 3 44 -14 176 -36 265 -5 23 -5 37 1
37 5 0 7 4 4 9 -4 5 33 29 80 52 50 25 89 51 92 61 2 10 11 18 18 18 8 0 17 7
20 15 4 8 13 15 21 15 8 0 12 4 9 8 -3 5 20 32 50 62 30 29 54 59 54 67 0 7 6
13 13 13 7 0 18 12 24 28 18 41 72 134 89 153 8 9 12 23 8 34 -5 13 -4 16 4
11 7 -4 12 -3 12 2 0 5 10 31 22 58 12 27 22 54 23 59 1 6 4 17 7 25 9 25 26
91 40 157 6 35 15 63 18 63 15 0 11 365 -4 458 -8 51 -18 97 -21 102 -10 16
-18 53 -17 83 1 15 -3 25 -8 22 -6 -4 -10 2 -10 12 0 10 -7 29 -16 41 -8 12
-13 26 -10 31 4 5 3 11 -1 13 -5 1 -28 44 -52 93 -24 50 -50 94 -58 98 -7 5
-11 12 -9 16 3 4 -3 17 -14 28 -10 12 -17 23 -14 26 3 2 -13 23 -36 45 -22 23
-40 43 -40 45 0 12 -236 237 -248 237 -3 0 -18 12 -33 26 -14 14 -33 26 -41
27 -7 2 -37 17 -67 35 -86 53 -289 129 -376 141 -8 1 -46 8 -110 21 -82 17
-284 18 -370 2z"/>
<path d="M1270 2785 c-124 -25 -245 -65 -335 -111 -108 -55 -157 -84 -183
-107 -10 -9 -22 -17 -27 -17 -11 0 -113 -88 -150 -129 -16 -19 -38 -43 -49
-55 -10 -12 -37 -46 -60 -76 -22 -30 -49 -64 -58 -74 -10 -11 -20 -28 -24 -38
-3 -10 -10 -18 -15 -18 -5 0 -9 -4 -9 -9 0 -5 -13 -38 -29 -73 -16 -35 -37
-83 -46 -108 -9 -25 -24 -63 -32 -85 -21 -56 -53 -284 -53 -380 0 -137 28
-316 60 -390 5 -11 21 -54 35 -95 23 -66 56 -137 78 -165 19 -26 77 -115 77
-119 0 -21 189 -209 270 -269 36 -27 72 -53 80 -60 20 -16 208 -107 221 -107
5 0 20 -6 32 -14 41 -26 281 -76 362 -76 83 0 145 41 227 150 30 40 44 105 47
227 1 43 7 82 12 87 15 16 10 26 -17 36 -37 14 -76 -10 -110 -67 -42 -73 -106
-143 -130 -143 -22 0 -44 35 -37 58 8 22 43 35 58 22 20 -17 29 -8 71 67 50
90 67 104 128 101 48 -2 49 -2 72 44 20 40 37 58 104 111 38 30 92 59 146 76
70 22 65 5 89 281 16 179 14 263 -6 343 -9 35 -16 41 -82 71 -120 54 -150 64
-201 71 -46 6 -50 5 -82 -29 -18 -19 -47 -42 -64 -51 -28 -15 -35 -14 -99 5
-84 25 -93 25 -109 0 -19 -30 -55 -25 -76 10 -30 52 -58 64 -132 56 -82 -8
-137 6 -163 42 -31 45 -35 75 -12 96 17 16 26 17 61 8 43 -11 44 -10 53 28 14
53 139 96 180 61 11 -9 17 -8 27 4 17 20 32 19 58 -6 14 -13 30 -18 42 -14 10
3 27 1 38 -6 22 -14 52 -6 52 14 0 21 -77 59 -139 67 -31 4 -94 18 -140 29
-46 12 -98 19 -115 16 -22 -3 -42 2 -71 20 -22 14 -51 30 -65 36 -49 21 -60
39 -60 96 0 69 18 143 35 143 7 0 15 6 17 12 7 20 79 15 128 -8 l45 -22 3 24
c2 15 10 24 21 24 30 0 109 -39 125 -61 12 -18 17 -19 35 -7 19 11 28 9 77
-17 l55 -30 17 22 c23 30 67 45 108 37 27 -5 34 -3 34 10 0 9 -5 16 -11 16 -6
0 -26 7 -44 16 -29 13 -32 19 -31 55 1 35 3 39 27 39 15 0 37 10 50 24 20 20
27 22 57 14 20 -6 108 -7 203 -4 147 5 170 3 177 -11 8 -14 12 -14 36 2 25 17
27 17 61 -6 19 -13 35 -27 35 -31 0 -5 5 -8 12 -8 12 0 218 -202 218 -214 0
-4 5 -12 10 -19 41 -48 50 -62 50 -74 0 -7 3 -13 8 -13 10 0 42 -58 42 -76 0
-8 4 -14 8 -14 10 0 32 -44 32 -64 0 -6 -47 -36 -105 -66 -58 -30 -105 -58
-105 -62 0 -4 -5 -8 -11 -8 -6 0 -18 -7 -26 -16 -15 -14 -14 -18 13 -40 16
-13 33 -23 37 -24 16 0 82 34 90 47 4 7 17 13 27 13 11 0 20 5 20 10 0 6 5 10
12 10 7 0 24 12 39 26 33 31 59 26 59 -11 0 -21 17 -90 47 -197 7 -23 -4 -23
-55 2 -22 11 -47 20 -55 20 -25 0 -78 -60 -105 -119 -24 -51 -27 -71 -33 -231
-4 -96 -12 -191 -18 -210 -28 -94 -60 -276 -65 -370 -4 -90 -9 -114 -35 -167
-16 -33 -35 -64 -40 -68 -17 -10 -13 -25 5 -25 9 0 61 46 116 103 128 131 124
127 139 160 7 15 15 27 19 27 3 0 26 39 51 88 24 48 47 89 51 92 12 9 56 152
82 266 22 94 26 136 26 270 0 109 -5 181 -15 229 -9 39 -19 85 -22 103 -3 18
-10 35 -14 38 -5 3 -9 16 -9 30 0 13 -4 32 -9 42 -5 9 -33 67 -62 127 -29 61
-71 137 -93 170 -42 64 -224 252 -291 301 -22 16 -45 34 -52 40 -7 6 -72 41
-146 78 -129 63 -173 78 -372 121 -87 19 -342 19 -435 0z m410 -35 c52 -7 102
-15 110 -18 19 -7 16 -6 70 -21 25 -7 50 -14 55 -15 6 -1 24 -10 42 -19 18 -9
39 -17 48 -17 8 0 15 -5 15 -11 0 -5 5 -7 10 -4 6 3 10 1 10 -4 0 -6 9 -11 20
-11 11 0 20 -4 20 -8 0 -5 18 -14 40 -21 29 -8 40 -17 40 -31 0 -14 5 -18 18
-13 13 5 14 3 5 -7 -9 -10 -22 -10 -62 0 -27 6 -54 9 -60 6 -5 -4 -12 -2 -16
4 -4 6 -10 8 -15 5 -21 -13 -203 -19 -300 -11 -47 4 -62 1 -105 -23 -57 -33
-75 -60 -75 -114 0 -21 -6 -45 -14 -53 -15 -15 -58 -19 -70 -6 -4 4 -11 7 -14
8 -4 1 -27 5 -52 10 -25 4 -48 7 -52 6 -5 -1 -8 1 -8 6 0 4 -15 13 -32 21 -18
8 -42 21 -53 30 -18 15 -19 15 -6 -1 14 -19 5 -23 -18 -9 -10 6 -23 5 -35 -2
-22 -11 -53 -11 -71 2 -17 12 -75 12 -75 0 0 -6 -7 -8 -16 -5 -27 10 -82 -61
-95 -123 -13 -61 -5 -134 16 -151 8 -7 12 -16 9 -21 -3 -5 0 -9 6 -9 6 0 18
-6 26 -12 8 -7 20 -17 27 -23 26 -21 85 -39 145 -43 34 -2 62 -8 62 -12 0 -11
-29 -40 -40 -40 -5 0 -24 -15 -42 -32 -19 -19 -46 -34 -63 -36 -65 -7 -104
-78 -74 -134 36 -67 102 -102 181 -96 32 2 58 1 58 -3 0 -4 9 -5 21 -2 12 3
24 2 28 -4 3 -5 23 -22 44 -38 37 -28 40 -28 88 -16 40 11 62 11 113 1 77 -16
101 -10 162 36 42 32 52 36 94 32 25 -3 71 -16 101 -30 29 -14 69 -31 86 -39
47 -20 57 -54 57 -199 1 -136 -23 -380 -36 -380 -4 0 -8 -7 -8 -15 0 -8 -9
-15 -21 -15 -21 0 -60 -17 -69 -30 -3 -4 -22 -15 -42 -23 -21 -9 -38 -21 -38
-26 0 -6 -6 -11 -12 -11 -21 0 -120 -101 -114 -116 4 -10 -11 -17 -55 -26 -50
-10 -66 -19 -90 -48 -35 -41 -39 -47 -61 -85 -12 -22 -27 -32 -56 -38 -41 -8
-68 -42 -63 -82 3 -22 59 -77 73 -73 24 8 108 87 125 116 9 17 21 32 25 32 5
0 8 6 8 13 0 21 16 38 31 32 9 -3 14 -16 13 -33 -2 -15 -5 -58 -8 -95 -8 -92
-15 -118 -39 -145 -11 -12 -16 -22 -11 -22 5 -1 -2 -7 -16 -15 -14 -8 -21 -14
-16 -15 14 0 -65 -60 -80 -60 -8 0 -14 -5 -14 -10 0 -21 -294 12 -335 38 -5 4
-14 7 -20 7 -5 0 -28 9 -50 18 -22 10 -53 21 -68 24 -21 4 -25 8 -15 14 9 6 6
9 -10 9 -12 0 -34 7 -47 16 -14 9 -25 14 -25 10 0 -3 -16 6 -36 19 -20 14 -43
25 -50 25 -8 0 -14 5 -14 10 0 6 -8 14 -17 17 -10 4 -23 12 -29 17 -6 6 -31
27 -54 46 -23 19 -57 49 -76 66 -18 18 -36 29 -40 25 -4 -3 -4 -1 -1 6 4 6 -4
20 -16 30 -13 10 -48 54 -78 98 -30 44 -57 82 -60 85 -17 13 -56 100 -46 100
7 0 1 9 -13 20 -14 11 -22 20 -18 20 4 0 -6 27 -23 59 -16 33 -29 70 -29 83 0
13 -4 28 -9 34 -20 22 -50 207 -53 334 -4 116 41 410 63 410 6 0 20 54 18 74
0 5 3 12 8 15 4 3 28 47 53 96 41 83 94 165 112 173 5 2 8 10 8 18 0 8 4 14 9
14 5 0 19 16 32 35 13 19 30 35 36 35 7 0 12 4 10 9 -3 15 124 131 161 147 19
9 30 19 26 26 -4 6 -1 9 7 6 8 -3 33 10 56 29 24 19 47 31 53 28 5 -3 10 1 10
9 0 10 6 13 15 10 8 -4 15 -1 15 5 0 6 9 11 20 11 11 0 20 3 20 8 0 4 33 18
73 31 39 14 77 27 82 30 14 8 37 12 58 12 10 0 15 5 11 11 -4 6 -3 9 2 5 5 -3
32 -1 59 5 57 11 242 25 295 22 19 -2 78 -8 130 -14z m995 -801 c15 -27 14
-29 -3 -29 -10 0 -27 9 -37 20 -10 11 -13 20 -7 20 7 0 12 7 12 16 0 21 17 8
35 -27z m-55 -314 c5 3 18 0 30 -7 17 -11 25 -10 50 4 48 28 55 11 53 -128 -1
-65 -6 -146 -12 -179 -17 -101 -47 -226 -53 -220 -3 3 -8 -11 -12 -32 -9 -50
-70 -175 -81 -166 -4 5 -5 2 -1 -5 8 -13 -9 -46 -40 -76 -9 -9 -14 -19 -11
-22 2 -3 -10 -20 -27 -38 -27 -29 -58 -69 -77 -99 -4 -5 -12 -6 -18 -3 -6 4
-8 12 -5 18 3 5 8 56 9 111 2 59 11 135 23 182 44 174 59 281 63 450 3 92 21
165 41 165 4 0 8 5 8 11 0 15 44 50 48 38 2 -5 8 -7 12 -4z"/>
<path d="M642 1598 c-17 -17 -14 -57 8 -107 21 -45 25 -71 13 -72 -10 0 -102
-7 -125 -9 -19 -1 -21 -8 -23 -82 -1 -41 -5 -51 -38 -79 -20 -17 -37 -36 -37
-41 0 -6 -14 -30 -30 -55 -17 -25 -30 -52 -28 -61 2 -9 11 0 23 23 11 21 28
47 38 57 9 10 17 24 17 32 0 8 9 17 19 21 11 3 30 27 42 52 20 42 23 44 35 28
12 -16 27 -18 96 -16 57 1 87 6 98 16 13 13 2 15 -88 15 -95 0 -103 2 -110 21
-5 11 -12 20 -17 19 -5 -1 -11 3 -13 8 -2 6 38 10 97 11 l99 2 24 -31 c24 -30
24 -33 11 -93 -17 -82 -17 -197 0 -274 12 -58 12 -65 -6 -93 -19 -29 -21 -30
-98 -30 -61 0 -89 5 -120 20 -22 12 -44 18 -49 15 -13 -8 -13 -35 0 -35 6 0
29 -12 52 -26 24 -15 43 -22 47 -16 3 6 34 12 69 13 52 3 61 2 56 -11 -10 -27
-9 -34 6 -37 22 -5 76 90 72 127 -2 15 4 52 12 81 20 68 20 180 0 259 -9 34
-13 72 -10 84 4 16 -5 33 -34 64 -38 42 -100 176 -87 189 13 13 103 -114 117
-166 16 -58 26 -67 34 -31 6 33 60 110 77 110 5 0 3 -12 -5 -27 -32 -64 -38
-176 -12 -249 11 -33 11 -44 -1 -73 -12 -29 -12 -38 1 -71 10 -26 12 -40 4
-48 -6 -6 -12 -30 -15 -54 -10 -102 -10 -124 -5 -133 3 -5 7 -16 8 -25 1 -8 6
-25 9 -37 6 -18 3 -23 -11 -24 -14 -1 -13 -3 6 -9 14 -4 20 -8 13 -9 -19 -2
-4 -29 20 -38 25 -8 58 -5 70 7 5 4 10 18 11 31 7 55 19 100 27 105 5 3 7 20
4 37 -3 18 -7 50 -10 72 -2 22 -9 55 -14 73 -10 33 -5 62 12 73 5 4 2 20 -8
39 -15 30 -15 36 -1 81 25 75 24 165 -2 223 -12 27 -20 51 -18 54 16 15 94
-107 81 -128 -3 -5 -1 -11 4 -15 6 -3 13 11 17 32 9 51 41 113 62 120 9 3 27
17 39 32 13 14 23 20 23 13 0 -23 -52 -116 -87 -156 -25 -27 -33 -44 -29 -59
3 -12 -4 -64 -15 -116 -21 -94 -20 -147 2 -217 5 -16 11 -53 13 -81 2 -36 14
-68 38 -110 52 -86 59 -101 49 -107 -10 -6 -101 142 -101 164 0 21 -10 5 -16
-25 -3 -18 5 -42 26 -76 16 -27 30 -53 30 -57 1 -4 9 -17 20 -30 l19 -24 40
23 39 22 -22 36 c-19 31 -46 87 -46 94 0 2 29 0 65 -4 70 -7 148 -4 165 6 30
19 -2 25 -124 25 l-134 0 -13 33 c-17 41 -17 41 -2 107 16 70 15 168 -1 245
-15 67 -13 74 9 55 10 -8 45 -12 103 -11 73 1 90 4 104 21 9 11 19 20 22 20 3
0 6 -86 6 -191 0 -119 4 -198 11 -211 8 -15 8 -19 0 -14 -20 13 -12 -10 11
-30 21 -19 21 -19 14 0 -6 19 -6 19 12 3 10 -9 22 -17 25 -17 8 0 -43 81 -56
91 -5 3 -7 96 -6 205 3 208 -2 237 -40 247 -11 3 -47 4 -80 3 -34 0 -61 2 -61
5 0 4 7 23 15 42 19 45 19 76 0 101 -15 19 -15 19 -37 -1 -13 -11 -35 -23 -50
-27 -18 -4 -33 -18 -44 -41 l-16 -34 -39 32 c-21 18 -39 40 -39 49 0 10 -6 15
-12 13 -7 -2 -26 -7 -42 -9 -16 -3 -46 -21 -66 -41 -42 -41 -53 -43 -67 -12
-6 12 -29 42 -51 67 -40 46 -78 60 -100 38z m323 -113 c1 -16 5 -55 9 -86 5
-34 3 -86 -3 -130 -20 -129 -31 -105 -32 71 -1 130 -3 157 -11 130 -6 -20 -8
-91 -6 -162 5 -126 -3 -164 -19 -90 -13 60 -9 237 6 300 1 2 13 2 28 0 21 -2
26 -8 28 -33z m365 -135 l0 -30 -110 0 c-60 0 -110 3 -110 7 0 4 10 17 22 30
19 21 30 23 110 23 l88 0 0 -30z m-547 -279 c-5 -51 -6 -53 -19 -30 -7 13 -11
33 -9 44 2 11 7 47 11 80 l8 60 7 -50 c4 -27 5 -74 2 -104z m326 70 c4 -40 4
-74 -1 -77 -4 -3 -8 -17 -8 -32 -1 -23 -2 -25 -11 -9 -5 9 -7 22 -4 27 3 6 1
10 -4 10 -6 0 -11 5 -11 11 0 5 6 7 13 3 10 -6 10 -4 0 7 -15 16 -17 75 -3 84
6 3 10 18 10 32 0 49 11 16 19 -56z m-149 10 c15 -28 13 -46 -9 -72 -16 -20
-21 -21 -35 -10 -9 7 -16 28 -16 45 0 52 39 76 60 37z m-37 -270 c1 -93 -1
-167 -5 -163 -12 12 -28 110 -28 172 0 58 19 174 27 166 3 -2 6 -81 6 -175z
m47 85 c9 -66 9 -101 -1 -160 -6 -42 -16 -79 -20 -82 -5 -3 -9 72 -9 166 0 98
4 169 9 166 5 -3 14 -44 21 -90z"/>
<path d="M485 935 c-27 -13 -16 -14 118 -15 133 0 174 7 131 24 -31 12 -218 5
-249 -9z"/>
<path d="M1124 935 c-17 -13 -5 -14 111 -14 116 0 128 1 111 14 -14 11 -46 15
-111 15 -65 0 -97 -4 -111 -15z"/>
<path d="M794 852 c-5 -9 -20 -33 -32 -53 -19 -31 -20 -38 -8 -48 12 -10 19
-4 40 32 19 32 24 50 18 66 -7 19 -8 19 -18 3z"/>
<path d="M2108 2229 c-26 -15 -21 -31 16 -55 39 -25 54 -20 54 17 0 19 -8 30
-25 38 -28 13 -24 13 -45 0z"/>
<path d="M1950 2208 c0 -5 -10 -18 -21 -27 l-21 -17 24 -16 c14 -9 31 -23 39
-30 8 -8 38 -19 68 -26 83 -19 86 6 11 94 -19 23 -34 30 -63 31 -20 1 -37 -3
-37 -9z"/>
<path d="M2221 2206 c-9 -10 -9 -16 -1 -21 13 -8 42 14 34 26 -8 13 -20 11
-33 -5z"/>
<path d="M1745 2201 c-2 -4 16 -29 40 -56 25 -27 45 -53 45 -59 0 -6 4 -17 9
-25 7 -11 13 -10 33 3 14 9 33 14 42 10 31 -12 16 21 -32 67 -44 43 -125 78
-137 60z"/>
<path d="M2288 2177 c-7 -6 -25 -18 -39 -25 -30 -16 -89 -65 -89 -74 0 -4 17
-12 38 -19 20 -6 52 -25 70 -40 43 -38 105 -69 137 -69 14 0 44 9 65 20 36 18
40 24 40 58 0 20 -10 57 -23 82 -22 45 -23 45 -82 50 -33 3 -70 11 -82 18 -17
9 -24 9 -35 -1z m144 -57 c11 0 29 -38 33 -70 4 -30 -22 -60 -52 -60 -19 0
-93 34 -93 42 0 5 -5 8 -10 8 -10 0 -22 8 -56 39 -14 12 -14 16 0 29 20 20 82
30 131 20 22 -4 43 -7 47 -8z"/>
<path d="M1706 2129 c-20 -99 12 -148 78 -123 23 9 20 57 -5 80 -12 10 -27 31
-35 46 -19 36 -30 35 -38 -3z"/>
<path d="M1222 2119 c3 -8 22 -17 44 -21 21 -3 56 -9 77 -13 24 -5 37 -4 37 3
0 17 -33 31 -71 30 -19 0 -47 3 -63 7 -22 6 -28 5 -24 -6z"/>
<path d="M1523 2105 c-35 -22 -42 -35 -17 -35 16 0 63 -29 98 -62 15 -13 23
-15 33 -7 17 15 17 22 -7 73 -24 53 -58 63 -107 31z"/>
<path d="M1806 1975 c-16 -19 -44 -40 -62 -47 -38 -13 -51 -36 -28 -45 20 -7
144 15 161 29 7 5 38 10 70 10 44 0 69 -7 105 -27 26 -15 50 -31 53 -36 11
-16 71 -10 89 9 15 18 15 21 -11 47 -25 24 -33 27 -83 23 -60 -5 -195 31 -216
58 -18 23 -47 15 -78 -21z"/>
<path d="M2160 73 c-19 -9 -50 -23 -68 -31 -49 -22 -34 -35 41 -36 72 -1 77 3
77 55 0 33 -2 34 -50 12z"/>
</g>
</svg>
